<svg width="47" height="56" viewBox="0 0 47 56" fill="none" xmlns="http://www.w3.org/2000/svg">
<path d="M45.7411 17.4917C46.4335 17.4917 47 16.9034 47 16.1842V11.8259C47 11.1068 46.4335 10.5185 45.7411 10.5185H43.6429V5.28849C43.6429 2.40112 41.3873 0.0585327 38.6071 0.0585327H5.03571C2.25558 0.0585327 0 2.40112 0 5.28849V50.6148C0 53.5022 2.25558 55.8448 5.03571 55.8448H38.6071C41.3873 55.8448 43.6429 53.5022 43.6429 50.6148V45.3849H45.7411C46.4335 45.3849 47 44.7965 47 44.0774V39.7191C47 39 46.4335 38.4116 45.7411 38.4116H43.6429V31.4383H45.7411C46.4335 31.4383 47 30.8499 47 30.1308V25.7725C47 25.0534 46.4335 24.465 45.7411 24.465H43.6429V17.4917H45.7411ZM21.8214 14.0051C25.5248 14.0051 28.5357 17.1322 28.5357 20.9784C28.5357 24.8246 25.5248 27.9517 21.8214 27.9517C18.1181 27.9517 15.1071 24.8246 15.1071 20.9784C15.1071 17.1322 18.1181 14.0051 21.8214 14.0051ZM33.5714 39.8062C33.5714 40.9612 32.5223 41.8982 31.2214 41.8982H12.4214C11.1205 41.8982 10.0714 40.9612 10.0714 39.8062V37.7143C10.0714 34.2494 13.2292 31.4383 17.1214 31.4383H17.646C18.9364 31.994 20.3422 32.31 21.8214 32.31C23.3007 32.31 24.717 31.994 25.9969 31.4383H26.5214C30.4136 31.4383 33.5714 34.2494 33.5714 37.7143V39.8062Z" fill="black"/>
</svg>

